<svg id="Layer_1" data-name="Layer 1" xmlns="http://www.w3.org/2000/svg" viewBox="0 0 752.92 1000"><defs><style>.cls-1{fill:none;stroke:#000;stroke-width:0.95px;}</style></defs><path class="cls-1" d="M468.93,0V134.52c0,137.67-221.24,65.44-294.49,145-62,67.34-41.12,201.5-35,189.24.85-1.71.86-9.4,0-16.24L154,443.16l117.21-73.52,15.39,7.69-6.84,26.51L309.65,563.7h2.57v5.13H297.68V563.7L256.61,562v6h-15.4v-6h3.43l22.24-148.75,10.26,3.42L302,558.57,254.05,556,272.87,415.8l-5.14-9.4L239.5,420.93v5.13l-5.13,4.28v29.92H231V429.48l-5.13-1.71L152.24,467.1l3.43,95.75h4.27v4.27H149.68v-4.27h-12v4.27H124V562h4.28l8.55-74.37,3.43-18.81H148l2.56,89.76H134.28l10.26-93.18L169.35,450l103.52-56.42,16.32,14.08c4.56,3.63,14.85,8.71,19.53,0,5.86-10.89,15.2-16.24,39.58-16.24,12,1.42,39.3,8.14,56.46,12.82,28.24,7.69,103.52,30.78,148,32.49s83.84-18,85.55-39.33c.57-5.41-3.59-20.86-24.81-39.33-.85-12-3.08-36.59-5.13-39.32l-6-1.71c1.43,8.55,4.11,27.87,3.42,36.76-15.4-7.12-54.92-20.18-89.82-15.39l-2.57-36.76h-6.84c1.14,4.84,3.42,19,3.42,36.76-37.64,7.13-115.49,29.07-128.32,35.91-35.93,15.39,24.8,15.39,96.67,40.18l9.41,1.71-.86-26.5H492l.86,28.21c28.52,9.12,93.08,20,123.19-9.41,29.09-33.34-55.61-62.4-66.73-63.26-13.69-2.56-18-2.39-45.34-1.71-19.68,1.71-65.7,7.35-92.39,16.24a581.93,581.93,0,0,0-61.6,24.8l1.71-26.51h-4.27l-1.71,26.51.85,8.55c-4.56,3.42-11.63,12.14-3.42,19.66l5.13-14.53-8.55,25.64H344L350.87,400h1.71l-9.41,31.63h5.13l7.7-30.78,6,1.71-10.27,36.76h5.14l8.55-35.91L374,406.8l-9.41,36.77,6-1.71L379.1,406l9.41,1.71L380,450.4l6-2.56,6.85-40.18,12,3.42-7.7,44.45,6-4.27,6-38.47,15.4,4.27L417.6,459l5.13-4.27,5.13-37.62,15.4,3.42L439,462.37l5.14-4.27,3.42-35.05,17.11,3.42-2.57,36.76,4.28-4.28,2.57-32.48,18.82,5.13v30.77l2.56-4.27.86-26.5c-1.14,8.55,2.74,21.88,82.12,17.09-171.95,6.84-202.75-15.38-202.75-15.38-4-.57-22.41-12.31-36.78-20.52-5.13,57.28,185.42,76.77,268.62,23.94,8.72-5.13,28.11-17.44,35.93-25.65C722.68,344,751.6,516.67,766.39,516.67h15.4l.85-6.84,23.1,66.68v31.63H550V589.33a31.84,31.84,0,0,1,11.12-23.93c8.9,5.47,11.12,18.23,11.12,23.93h14.55c.68-13.67,7.7-22.22,11.12-24.79,9.58,5.47,11.4,18.81,11.12,24.79h13.69c-.69-15.73,7.7-22.51,12-23.93,9.59,3.42,12,17.38,12,23.93h12c.68-13,8.84-21.37,12.83-23.93,9.58,5.47,11.41,18.23,11.12,23.93h13.69c-.69-13.67,7.7-22.22,12-24.79,10.95,5.47,12.54,18.81,12,24.79h13.69c0-16.41,7.41-22.79,11.12-23.93,8.21,2.73,11.41,17.09,12,23.93h13.69c.68-16.41,8.27-22.79,12-23.93,6,1.71,11.12,11.11,11.12,23.93h6v-9.4l-17.12-35-.85-7.7-.86,7.7-14.54,34.19h-4.28l-14.54-34.19-1.71-7.7-1.71,7.7L729.6,579.07h-4.27l-16.26-34.19-.85-6-.86,6-16.25,34.19h-2.57l-16.25-34.19-.86-6-.86,6-16.25,35h-2.57l-15.4-35L635.5,538l-1.71,6.84-15.4,34.19H615l-15.4-34.19-.86-6.84L597,544.88l-16.25,34.19h-2.57l-16.25-34.19-.86-5.13-.85,5.13-14.55,35v28.21h-6V579.93l24.91-68.39,1.46,5.13H789.36c26.78-2.22,107.43,76.85,81.59,123.16-29,52-333.16,77.91-451.38,78.29l-1.47,1-2.44-1-1,1-1.95-1-2,1-9.28-12.21A48.28,48.28,0,0,1,403,693.69c1.47-5.36-3.41-9.76,5.86-34.67-.49-4.23-1.17-13.38,0-16.12l2-27.34c-.82.65-2.74,1.56-3.91,0-6,8.79-17.87,26.76-17.09,28.32-.49,2.45-2.54,8.2-6.84,11.72.82,4.23,1.86,14.36-.49,21s-4.55,24.26-5.37,32.23l-5.37,7.82-1.95,1.47-1.47-1.47-2,1.47-1.46-1.47-2,1.47-1.46-1.47L360,718.12l-2.44-1v5.37l2,4.39v4.89h59.08V726.9l2-3.42-1-7.32c-4.24-3.75-12.11-12.4-9.77-17.09,2.93-5.86,15.62-41,15.14-42.49-.39-1.18,5-23.28,7.81-34.19,1.79-4.88,3.78-20.17.49-36.62-2.93-14.65-3.91-13.68,1-36.63,9.61-.16,31.55-2.25,42.49-9.28,1.13-8.14,3.8-25.49,5.37-29.79,8.3.82,25.39-2.64,27.34-22.95-13.67-.65-41.11.49-41.5,10.25.32,2.12,2.54,6.65,8.79,7.82-2,7.81-7,24.12-11.72,26.86-2-1.14-9.18-2.74-22.46,0-.82-.82-4.89-2-14.65,0H417.12v-5.37c11.07-9,26.57-28.43,0-34.68-4.55,2-14.35,8.21-17.09,17.58H397.1l-1,2.45,1.95,2.93-3.91-1-1,2.93,2.93,1-.49,2.93-5.86,2.44,5.86,5.37,2.44-3.42v7.33c-5,.65-17.09,6-24.9,22s-14.65,2.77-17.09-5.86c-2.61-6.83-8.21-21.1-9.77-23.44-1.95-2.93-1.46-11.23,8.79-2.44l4.4,3.91h5.86c2.92,0,12.2,22,14.64,46.88.82,6.35,2.35,20.12,2,24.42,4.55.81,11.81,4.88,4.39,14.65-.81-2.93-3.12-8.7-5.86-8.31s-2.11,7.33-1.46,10.75c-2.61-2-7.82-7.42-7.82-13.67,1.47-1.14,2.35-9.19-5.85-32.24l-3.91-10.74,7.32-4.4-.49-2.44-6.83,4.4-.49-1.47,7.81-4.88-.49-2.44-8.3,5.86-.48-2,8.78-5.86-1-2.44-7.81,6.35-1-1.95,8.79-6.35-1-2.44c-14.65,8.79-13.67,12.4-9.76,24.9l8.79,23.93c1.95,9.77,11.23-4.39,16.6-21l8.79,17.58c-1,3.1-2.54,10.45-1,15.14-4.23,6.84-13.28,25.4-15.63,44.93-3.58,11.56-9.76,39.27-5.86,57.63l-4.39,8.79-7.81,5.86c1.46,5.21-108.59-5.86-116.15,27.63-12.06,16.8,9.9,54,194.27,68.36,84,3,21,116.36,34.72,187.76" transform="translate(-123.54)"/></svg>